<svg id="instagram" xmlns="http://www.w3.org/2000/svg" viewBox="0 0 60.001 60" fill="currentColor">
  <path d="M51.824,4.831H15.015a11.608,11.608,0,0,0-11.6,11.595V53.236a11.608,11.608,0,0,0,11.6,11.595H51.826A11.607,11.607,0,0,0,63.42,53.236V16.424A11.608,11.608,0,0,0,51.824,4.831Zm3.326,6.914,1.326,0v10.17l-10.136.033-.035-10.169ZM24.856,28.672a10.542,10.542,0,1,1-2,6.158A10.557,10.557,0,0,1,24.856,28.672ZM57.573,53.235a5.754,5.754,0,0,1-5.749,5.749H15.015a5.754,5.754,0,0,1-5.75-5.749V28.672h8.956a16.407,16.407,0,1,0,30.394,0h8.959Z" transform="translate(-3.419 -4.831)"/>
</svg>
