<svg xmlns="http://www.w3.org/2000/svg" viewBox="0 0 1118.4 367.9">
    <g transform="translate(-33.4 -10.9)">
        <g>
            <path d="M706.9,76.9l12.8-20L884.3,377.8H855.5Z"/>
            <path d="M1019.9,248.5l11.2-17.5,76.6,146.8h-21.3Z"/>
            <path d="M1025.2,202.4,910.7,377.8,845.4,245.4Z"/>
            <path d="M845.4,247l64.8,130.8L886.1,237.3Z"/>
            <path d="M360.2,130.5l58.1-20-1.6-69.3,37.4-12.9,9.6,201.4,39-55.7-4.4-92.2,218-70.9L475.1,375.5H139.3Z"/>
            <path d="M1151.8,364.8"/>
            <g>
                <path d="M693.7,282.6V247.2l-26.6-2.3-.4,34.9Z"/>
                <path d="M699.1,283.2l24,2.5.5-35.9-24.5-2.1Z"/>
                <path d="M699.1,288.6v34.6l23.4,1.5.5-33.6Z"/>
                <path d="M693.7,288.1l-27.1-2.9-.4,36,27.5,1.7Z"/>
            </g>
            <path d="M33.4,378.8h51l29.5-30.1H71Z"/>
            <path d="M313.3,145.9l105-36.8L111.2,378.8H62.9Z"/>
        </g>
    </g>
</svg>
